# xmcd
#
# Track frame offsets:
#	150
#	17013
#	35335
#	51318
#	70453
#	92295
#	111693
#	128863
#	153495
#	174308
#
# Disc length: 2585 seconds
#
# Revision: 1
# Processed by: cddbd v1.5.2PL0 Copyright (c) Steve Scherf et al.
# Submitted via: EZCDAudioConverter 2.4.0.1
#
DISCID=830a170a
DTITLE=Various Artist - Giang Sinh Muon Doi
DYEAR=1989
DGENRE=Vietnamese
TTITLE0=Hang Nga - Tieng chuong vang
TTITLE1=Vu Khanh - Mung Chua ra doi
TTITLE2=Le Hang - Hang Belem
TTITLE3=Elvis Phuong - Dem Thanh vo cung
TTITLE4=Nhu Mai - Loi con xin Chua
TTITLE5=Tuan Vu - Du am mua Giang sinh
TTITLE6=Le Hang - Mua dong nam ay
TTITLE7=Elvis Phuong - Cao cung len
TTITLE8=Hang Nga - Loi yeu cuoi
TTITLE9=Tuan Vu - Lay Chua con la nguoi ngoai dao
EXTD=
EXTT0=
EXTT1=
EXTT2=
EXTT3=
EXTT4=
EXTT5=
EXTT6=
EXTT7=
EXTT8=
EXTT9=
PLAYORDER=
